<svg height="50" viewBox="0 0 200 50" width="200" xmlns="http://www.w3.org/2000/svg"><g fill="none" fill-rule="evenodd"><path d="m0 0h200v50h-200z"/><path d="m20.6263075 33.7715736v-2.9238579h-6.9782949v-13.7741116h-3.6480126v16.6979695zm8.2492155.2284264c2.0162134 0 3.5891737-.5862944 4.7188808-1.7588832 1.1297071-1.1725889 1.6945606-2.7982234 1.6945606-4.8769036 0-1.3401015-.2588912-2.5088833-.7766736-3.5063452s-1.2591527-1.7626903-2.2241109-2.2956853c-.9649581-.5329949-2.0789749-.7994923-3.3420502-.7994923-2.0319038 0-3.6087866.5786802-4.7306485 1.7360406-1.121862 1.1573604-1.6827929 2.7791878-1.6827929 4.8654822 0 1.3401015.2588912 2.5126904.7766736 3.5177665.5177825 1.0050761 1.2591527 1.7760152 2.2241109 2.3128173.9649582.536802 2.0789749.805203 3.3420502.805203zm.0470711-2.7982234c-.9649581 0-1.6612186-.323604-2.0887813-.9708121-.4275628-.6472082-.6413442-1.6027919-.6413442-2.8667513 0-1.2715736.2118201-2.2214467.6354603-2.8496193.4236401-.6281726 1.1140167-.9422589 2.0711297-.9422589.9649581 0 1.6592573.3159899 2.0828975.9479696.4236401.6319797.6354602 1.5799492.6354602 2.8439086 0 1.2715736-.2098588 2.2290609-.6295763 2.8724619-.4197176.643401-1.1081329.9651015-2.0652459.9651015zm12.5326883 2.7982234c1.0277197 0 1.8612709-.1427665 2.5006538-.4282995.6393828-.285533 1.261114-.7975888 1.8651935-1.5361675h.0941423l.6942991 1.7360406h2.5065377v-8.5088832c0-1.5228427-.4707113-2.6573605-1.4121339-3.4035533-.9414226-.7461929-2.2947176-1.1192894-4.0598849-1.1192894-1.8436193 0-3.5224896.3845178-5.0366109 1.1535533l1.188546 2.3527919c1.4199791-.6167513 2.6555962-.9251269 3.7068515-.9251269 1.3650627 0 2.0475941.6472081 2.0475941 1.9416244v.5596446l-2.2829498.0685279c-1.9691422.068528-3.4420763.4244924-4.4188023 1.0678934-.9767259.6434011-1.4650889 1.6427665-1.4650889 2.9980965 0 1.2944162.36284 2.2918782 1.0885199 2.9923858s1.7200575 1.0507614 2.9831328 1.0507614zm1.353295-2.5469543c-1.1610879 0-1.7416318-.4911168-1.7416318-1.4733503 0-.6852792.2549686-1.1954314.7649059-1.5304568.5099372-.3350254 1.2866108-.5177665 2.3300209-.5482234l1.3885983-.0456853v1.0507615c0 .7690355-.2490847 1.3857868-.7472542 1.8502538-.4981694.464467-1.1630491.6967005-1.9946391.6967005zm13.5917887 2.3185279v-6.0076142c0-1.5076142.2235879-2.5869289.6707636-3.2379442.4471757-.6510152 1.1728557-.9765228 2.1770398-.9765228.7374477 0 1.2748431.2303299 1.6121861.6909898.3373431.4606599.5060147 1.1516498.5060147 2.0729696v7.4581218h3.5891736v-8.3261421c0-1.5152285-.396182-2.6744924-1.188546-3.4777919s-1.9534519-1.2049492-3.4832636-1.2049492c-.8943515 0-1.6925994.1579949-2.3947437.4739847-.7021444.3159899-1.2532688.7823604-1.6533734 1.3991117h-.2000523l-.4824791-1.6332487h-2.7418933v12.7690355zm19.4992155.2284264c1.7416318 0 3.3185146-.285533 4.7306485-.856599v-2.9695431c-1.7180962.5862944-3.1812238.8794416-4.3893828.8794416-2.8791841 0-4.3187762-1.8616751-4.3187762-5.5850254 0-1.7893401.3765691-3.1846447 1.1297071-4.1859137.7531381-1.001269 1.8161611-1.5019035 3.1890691-1.5019035.627615 0 1.2669979.110406 1.9181485.3312182s1.2983787.4796955 1.9416841.7766498l1.1767783-2.8781726c-1.6867155-.784264-3.3655858-1.176396-5.0366109-1.176396-1.6396444 0-3.0694299.3483503-4.2893567 1.0450508s-2.1554655 1.6979695-2.8066161 3.0038071c-.6511507 1.3058376-.976726 2.8267767-.976726 4.5628173 0 2.7563451.6629184 4.8711929 1.9887553 6.3445431 1.3258368 1.4733503 3.2400627 2.2100254 5.7426778 2.2100254zm11.3088389 0c1.0277197 0 1.8612709-.1427665 2.5006538-.4282995.6393828-.285533 1.261114-.7975888 1.8651935-1.5361675h.0941422l.6942992 1.7360406h2.5065377v-8.5088832c0-1.5228427-.4707113-2.6573605-1.4121339-3.4035533-.9414226-.7461929-2.2947176-1.1192894-4.059885-1.1192894-1.8436192 0-3.5224895.3845178-5.0366108 1.1535533l1.188546 2.3527919c1.4199791-.6167513 2.6555962-.9251269 3.7068514-.9251269 1.3650628 0 2.0475942.6472081 2.0475942 1.9416244v.5596446l-2.2829498.0685279c-1.9691423.068528-3.4420764.4244924-4.4188023 1.0678934-.9767259.6434011-1.4650889 1.6427665-1.4650889 2.9980965 0 1.2944162.3628399 2.2918782 1.0885199 2.9923858.7256799.7005076 1.7200575 1.0507614 2.9831328 1.0507614zm1.353295-2.5469543c-1.1610879 0-1.7416318-.4911168-1.7416318-1.4733503 0-.6852792.2549686-1.1954314.7649058-1.5304568.5099373-.3350254 1.2866109-.5177665 2.330021-.5482234l1.3885983-.0456853v1.0507615c0 .7690355-.2490847 1.3857868-.7472542 1.8502538s-1.1630492.6967005-1.9946391.6967005zm13.5917885 2.3185279v-17.7715736h-3.5891735v17.7715736zm9.108264.2284264c.902196 0 1.649451-.0685279 2.241762-.2055838.592312-.1370558 1.17874-.3845177 1.759284-.7423857v-2.9809645c-.588389.3807106-1.176778.660533-1.765168.839467-.588389.178934-1.227772.268401-1.918148.268401-1.867155 0-2.800732-1.248731-2.800732-3.7461929 0-2.573604.933577-3.8604061 2.800732-3.8604061.486402 0 .972803.0704315 1.459205.2112944.486402.140863 1.012029.3217005 1.576883.5425127l1.0591-2.6954314c-1.208159-.5786802-2.573222-.8680203-4.095188-.8680203-2.078975 0-3.675471.5729695-4.789488 1.7189086-1.114016 1.1459391-1.671025 2.803934-1.671025 4.9739848 0 4.3629441 2.047594 6.5444162 6.142783 6.5444162zm11.650104 0c.902197 0 1.706329-.161802 2.412396-.4854061s1.251307-.7823604 1.635722-1.376269h.188284l.482479 1.6332487h2.753661v-12.7690355h-3.589173v6.0076142c0 1.5076142-.223588 2.5869289-.670764 3.2379441-.447176.6510153-1.172856.9765229-2.17704.9765229-.737447 0-1.274843-.23033-1.612186-.6909899s-.506015-1.1516497-.506015-2.0729695v-7.4581218h-3.589173v8.3261421c0 1.5076142.392259 2.6630711 1.176778 3.4663706s1.949529 1.2049492 3.495031 1.2049492zm14.827406-.2284264v-17.7715736h-3.589173v17.7715736zm6.966527.2284264c1.02772 0 1.861271-.1427665 2.500654-.4282995s1.261114-.7975888 1.865194-1.5361675h.094142l.694299 1.7360406h2.506538v-8.5088832c0-1.5228427-.470711-2.6573605-1.412134-3.4035533-.941423-.7461929-2.294718-1.1192894-4.059885-1.1192894-1.843619 0-3.52249.3845178-5.036611 1.1535533l1.188546 2.3527919c1.419979-.6167513 2.655596-.9251269 3.706852-.9251269 1.365062 0 2.047594.6472081 2.047594 1.9416244v.5596446l-2.28295.0685279c-1.969142.068528-3.442076.4244924-4.418802 1.0678934-.976726.6434011-1.465089 1.6427665-1.465089 2.9980965 0 1.2944162.36284 2.2918782 1.08852 2.9923858s1.720057 1.0507614 2.983132 1.0507614zm1.353295-2.5469543c-1.161087 0-1.741631-.4911168-1.741631-1.4733503 0-.6852792.254968-1.1954314.764905-1.5304568.509938-.3350254 1.286611-.5177665 2.330021-.5482234l1.388599-.0456853v1.0507615c0 .7690355-.249085 1.3857868-.747254 1.8502538-.49817.464467-1.16305.6967005-1.99464.6967005zm14.509676 2.5469543c1.302301 0 2.400628-.1941624 3.294979-.5824873v-2.5926396c-.878661.2664975-1.631799.3997462-2.259414.3997462-.470711 0-.849242-.1180203-1.135591-.3540609s-.429524-.6015229-.429524-1.0964467v-6.1560914h3.683316v-2.6154822h-3.683316v-2.7182741h-2.294718l-1.035564 2.6954314-1.976988 1.1649747v1.4733502h1.718096v6.1560914c0 1.4086294.327537 2.4651015.98261 3.1694162s1.700445 1.0564721 3.136114 1.0564721zm11.497124 0c2.016213 0 3.589173-.5862944 4.71888-1.7588832 1.129707-1.1725889 1.694561-2.7982234 1.694561-4.8769036 0-1.3401015-.258891-2.5088833-.776674-3.5063452-.517782-.9974619-1.259152-1.7626903-2.224111-2.2956853-.964958-.5329949-2.078974-.7994923-3.34205-.7994923-2.031903 0-3.608786.5786802-4.730648 1.7360406s-1.682793 2.7791878-1.682793 4.8654822c0 1.3401015.258891 2.5126904.776673 3.5177665.517783 1.0050761 1.259153 1.7760152 2.224111 2.3128173.964959.536802 2.078975.805203 3.342051.805203zm.047071-2.7982234c-.964958 0-1.661219-.323604-2.088782-.9708121-.427562-.6472082-.641344-1.6027919-.641344-2.8667513 0-1.2715736.21182-2.2214467.63546-2.8496193.423641-.6281726 1.114017-.9422589 2.07113-.9422589.964958 0 1.659257.3159899 2.082898.9479696.42364.6319797.63546 1.5799492.63546 2.8439086 0 1.2715736-.209859 2.2290609-.629576 2.8724619-.419718.643401-1.108133.9651015-2.065246.9651015zm12.921025 2.569797v-6.498731c0-1.0279187.319691-1.8274111.959074-2.3984771s1.531773-.856599 2.677171-.856599c.415795 0 .768828.0380711 1.0591.1142132l.270659-3.2664975c-.321653-.0685279-.72568-.1027918-1.212082-.1027918-.815899 0-1.570999.2189086-2.265298.6567258-.694299.4378173-1.245423 1.014594-1.653373 1.73033h-.176517l-.52955-2.1472081h-2.718358v12.7690355z" fill="#1552f0" fill-rule="nonzero"/></g></svg>